<svg width="32" height="32" viewBox="0 0 32 32" fill="none" xmlns="http://www.w3.org/2000/svg">
<rect width="32" height="32" rx="8" fill="black"/>
<g clip-path="url(#clip0_4262_10)">
<path d="M15.1618 11.1338V15.4925C15.1618 15.506 15.1644 15.5194 15.1694 15.5319C15.1744 15.5443 15.1817 15.5556 15.1909 15.5651C15.2001 15.5746 15.211 15.582 15.2231 15.5871C15.2351 15.5921 15.2479 15.5946 15.2609 15.5945H21.8949C21.9079 15.5945 21.9207 15.5971 21.9327 15.6024C21.9446 15.6076 21.9554 15.6152 21.9645 15.6248C21.9736 15.6344 21.9808 15.6458 21.9857 15.6583C21.9905 15.6708 21.9929 15.6842 21.9928 15.6977V20.5261C21.9928 20.5531 21.9825 20.579 21.9641 20.5982C21.9458 20.6173 21.9209 20.628 21.8949 20.628H15.2584C15.2454 20.628 15.2326 20.6307 15.2207 20.6359C15.2087 20.6411 15.1979 20.6487 15.1888 20.6583C15.1797 20.6679 15.1725 20.6793 15.1677 20.6918C15.1628 20.7044 15.1604 20.7177 15.1606 20.7312V25.8925C15.1606 25.9199 15.1501 25.9462 15.1315 25.9655C15.113 25.9849 15.0878 25.9958 15.0615 25.9958H10.1079C10.095 25.9958 10.0822 25.9931 10.0702 25.9879C10.0583 25.9827 10.0474 25.975 10.0383 25.9654C10.0292 25.9558 10.022 25.9445 10.0172 25.9319C10.0123 25.9194 10.0099 25.906 10.0101 25.8925V20.4125C10.0101 20.3855 10.0204 20.3596 10.0388 20.3405C10.0571 20.3213 10.082 20.3106 10.1079 20.3106H13.3277C13.3471 20.3106 13.366 20.3046 13.3822 20.2935C13.3983 20.2824 13.411 20.2667 13.4187 20.2481C13.4263 20.2296 13.4286 20.2091 13.4252 20.1893C13.4218 20.1694 13.4129 20.151 13.3996 20.1364L13.3661 20.099L11.0219 17.6048C10.6999 17.2603 10.3779 16.9171 10.0596 16.5725C10.0254 16.5321 10.0057 16.4806 10.0039 16.4267C10.0039 14.3545 10.0039 12.2818 10.0039 10.2087C10.0105 10.1588 10.0278 10.1111 10.0547 10.0693C10.0706 10.0443 10.0897 10.0217 10.1116 10.0022L12.4547 7.50802C12.9055 7.02888 13.3546 6.54974 13.802 6.0706C13.8209 6.04903 13.8442 6.03207 13.8701 6.02092C13.896 6.00977 13.9239 6.0047 13.9519 6.00608H21.8949C21.9079 6.00591 21.9207 6.00842 21.9327 6.01347C21.9448 6.01851 21.9557 6.02601 21.9649 6.03549C21.9741 6.04497 21.9814 6.05625 21.9864 6.06871C21.9914 6.08116 21.994 6.09453 21.994 6.10802V10.9338C21.994 10.9473 21.9914 10.9607 21.9864 10.9731C21.9814 10.9856 21.9741 10.9969 21.9649 11.0064C21.9557 11.0158 21.9448 11.0233 21.9327 11.0284C21.9207 11.0334 21.9079 11.0359 21.8949 11.0358H15.2609C15.2354 11.0357 15.211 11.0459 15.1925 11.0642C15.1741 11.0824 15.1631 11.1073 15.1618 11.1338Z" fill="white"/>
</g>
<defs>
<clipPath id="clip0_4262_10">
<rect width="12" height="20" fill="white" transform="translate(10 6)"/>
</clipPath>
</defs>
</svg>
