<?xml version="1.0" encoding="UTF-8"?>
<svg id="1111" xmlns="http://www.w3.org/2000/svg" viewBox="0 0 23.36 39.16">
<g id="1111">
<path d="m20.87,10.15c3.89,12.53.4,27.7-6.13,28.48-4.9.58-12.04-6.89-13.79-13.71C-2.5,11.49,15.08,1.33,16.27.66c1.51,2.26,3.36,5.48,4.6,9.49Z" style="fill:#fff;"/>
<path d="m16.27.66C15.08,1.33-2.5,11.49.95,24.92c1.75,6.82,8.89,14.29,13.79,13.71,6.53-.78,10.02-15.95,6.13-28.48-1.24-4.01-3.09-7.23-4.6-9.49Z" style="fill:none; stroke:#000; stroke-miterlimit:10;"/>
<path d="m14.2,2.33l-.5,1.23c-.08.19-.19.41-.25.61-.15.56-.06-.3.3-.03-.12-.09-1.09.4-1.18.44-.37.16-.72.35-1.06.57-1.3.81-2.9,1.82-3.58,3.26l2.74,1.16c.06-.2.06-.11-.04,0,.05-.06.1-.11.16-.17.18-.18-.14.09.06-.06.28-.21.6-.38.91-.55.74-.43,1.44-.96,2.03-1.58s1.13-1.34,1.52-2.11c.25-.48.46-.96.37-1.51-.12-.74-.77-1.38-1.56-1.37-1.19,0-1.56.99-2.28,1.7-.56.56-1.39.8-2.06,1.22-1.54.98-2.71,2.37-3.84,3.77-1.44,1.81-2.58,3.78-1.84,6.17.57,1.84,3.46,1.05,2.89-.8-.31-1.01.03-1.81.62-2.66.63-.9,1.36-1.76,2.11-2.55s1.55-1.38,2.52-1.87c.56-.29,1.1-.61,1.56-1.03.19-.18.37-.37.53-.57.14-.18.28-.36.42-.54.04-.05.08-.1.12-.16.12-.15.07-.11-.13.12l-.76.2h.12c-.35-.16-.71-.31-1.06-.45l.09.07-.44-1.06c.13-.39.15-.49.06-.29-.04.08-.08.17-.13.25-.07.14-.15.27-.23.4-.15.25-.31.47-.48.66-.39.46-.82.85-1.3,1.16-1.18.76-2.43,1.34-2.84,2.81-.2.71.19,1.5.87,1.77.64.26,1.55.07,1.87-.61.28-.58.75-.94,1.26-1.32.67-.49,1.35-1.01,2.12-1.35.85-.38,1.65-.51,2.09-1.44.42-.87.73-1.8,1.09-2.69.3-.75-.33-1.65-1.05-1.85-.86-.24-1.54.29-1.85,1.05h0Z"/>
<path d="m4.28,14.53c.34-2.53-.13.16-.27.68-.07.24-.69,2.57-.36,1.25.28-.63.27-.61-.03.05-.37.84-.73,1.69-1.08,2.54-.44,1.25-.55,2.54-.71,3.86,5.28-1.43,10.56-2.86,15.84-4.29-.81-1.37.47,1.91.04-.1-.06-.25-.1-.51-.14-.76.23.93.25,1.86.04,2.8l-2.19,3.75.28-.25c3.31-2.99,3.27-9.02,0-12.02-3.54-3.25-8.49-3.19-12.02,0-4.21,3.8-3.32,10.71-.69,15.17,1.84,3.12,6.03,5.06,9.6,3.91,1.4-.45,2.67-1.19,3.75-2.19,1.76-1.61,2.21-3.78,2.49-6.01.07.79-.11,1.52-.53,2.18.16-.35.32-.7.47-1.06.49-1.13.99-2.27,1.37-3.44.64-1.98.87-4,1.14-6.06s-1.14-4.66-2.49-6.01c-1.47-1.47-3.89-2.58-6.01-2.49s-4.48.82-6.01,2.49c-1.63,1.78-2.17,3.64-2.49,6.01h0Z"/>
<path d="m2.07,27.66c.68,1.23,1.6,2.38,2.55,3.41l1.72,1.33,2.03.86,2.26.3c1.17.04,2.26-.2,3.27-.73.72-.2,1.35-.57,1.88-1.09.64-.38,1.15-.89,1.52-1.52.53-.53.89-1.16,1.09-1.88.53-1.01.78-2.1.73-3.27.03-2-.51-3.45-1.36-5.21-.2-.42-.46-.8-.64-1.23l.86,2.03c-.69-1.86-1.34-3.55-2.8-4.97-1.58-1.53-3.8-2.49-6.01-2.49-2.08,0-4.58.93-6.01,2.49s-2.59,3.75-2.49,6.01.85,4.41,2.49,6.01l.14.14-1.33-1.72c.08.1.15.21.2.33l-.86-2.03c.41,1.02.76,2.06,1.25,3.05.19.38.42.74.6,1.14l-.86-2.03c.05.12.08.24.11.36l-.3-2.26c.02.13.03.25.02.38l14.51-6.01c-.16-.17-.31-.34-.46-.53l1.33,1.72c-.29-.37-.54-.75-.76-1.16-1.02-1.84-3.07-3.35-5.08-3.91s-4.74-.31-6.55.86-3.41,2.91-3.91,5.08-.28,4.49.86,6.55h0Z"/>
<path d="m20.31,31.72c-.04-.46-.08-.93-.13-1.39-.08-.72-.11-1.51-.35-2.21-.38-1.14-.94-2.33-1.84-3.17-.35-.33-.98-.84-1.4-1.08l-1.55-.66-1.73-.23c-.32.03-.63.07-.94.12-.59,0-1.13.15-1.64.44-.55.15-1.03.43-1.43.84-.26.14-.49.32-.69.54-1.33,1.23-1.85,2.98-1.97,4.72-.02.24-.02.48-.02.71-.02,1.65.74,3.43,1.9,4.6.59.63,1.29,1.08,2.09,1.34.77.41,1.61.59,2.5.56,1.68-.08,3.42-.63,4.6-1.9s1.88-2.83,1.9-4.6c0-.24,0-.48.02-.71l-.23,1.73.04-.09-1.67,2.87.06-.06-4.6,1.9h.08c-1.53-.64-3.06-1.28-4.6-1.91l.08.07-1.02-1.32c.06.07.1.15.14.24l-.66-1.55c.07.18.11.35.14.54l-.23-1.73c.05.46.09.93.13,1.39-.03.89.15,1.73.56,2.5.26.81.71,1.5,1.34,2.09.59.63,1.29,1.08,2.09,1.34.77.41,1.61.59,2.5.56,1.68-.08,3.42-.63,4.6-1.9,1.11-1.2,2.06-2.9,1.9-4.6h0Z"/>
<path d="m17.75,28.48c-.87-1.61-2.29-2.52-3.73-3.55l1.21.94c-.17-.14-.32-.27-.47-.43l.94,1.21c-.5-.67-.94-1.39-1.52-2.01-.27-.29-.57-.54-.82-.84l.94,1.21c-.11-.14-.19-.29-.25-.46l.6,1.43-.04-.25c-.25-1.4-1.57-2.89-2.76-3.59-1.29-.75-3.18-1.07-4.62-.6s-2.85,1.37-3.59,2.76c-.79,1.5-.9,2.95-.6,4.62.32,1.81,1.58,3.01,2.74,4.3l-.94-1.21c.57.79,1.1,1.62,1.83,2.28.69.62,1.45,1.09,2.19,1.62l-1.21-.94c.17.13.31.27.46.43l-.94-1.21c.09.11.16.23.22.35,1.49,2.76,5.55,3.87,8.21,2.15,2.81-1.81,3.75-5.25,2.15-8.21h0Z"/>
<path d="m21.56,29.71c.95-4.36,2.43-8.81,1.5-13.28-.66-3.17-4.4-5.01-7.38-4.19-3.3.91-4.85,4.2-4.19,7.38-.16-.79-.17.95-.06.23-.11.73-.31,1.46-.47,2.18l-.98,4.49c-.69,3.16.95,6.49,4.19,7.38,3,.82,6.69-1.01,7.38-4.19h0Z"/>
<path d="m21.45,12.02c-.59-1.22.19.87-.13-.34-.14-.54-.33-1.08-.48-1.62-.12-.45-.25-.9-.37-1.35-.07-.24-.13-.49-.2-.73-.16-.7-.15-.69.02.04-.04-3.14-2.73-6.15-6-6s-6.04,2.64-6,6,1.32,7.07,2.79,10.06c1.38,2.83,5.62,3.82,8.21,2.15,2.9-1.87,3.63-5.19,2.15-8.21h0Z"/>
</g>
</svg>