<svg xmlns="http://www.w3.org/2000/svg" style="display: none;">
  <symbol id="icon-cart" viewBox="0 0 20 20">
		<path d="M16.8493 5.52436H8.73675C7.4907 5.52436 7.31586 3.23353 7.05615 2.37059C6.93044 1.95291 6.547 1.66669 6.11285 1.66669H2.65233C1.29662 1.66669 1.21761 4.49395 2.65233 4.49395C3.41392 4.49395 4.67556 4.23952 4.96357 5.19892L7.00227 12.0142C7.32973 13.1051 8.41352 13.774 9.529 13.5599C12.0581 13.0788 14.6385 12.476 16.9549 11.3231C17.668 10.969 18.1496 10.2799 18.2458 9.48699C18.3547 8.57652 18.3564 7.66563 18.2468 6.75513C18.1623 6.04805 17.5581 5.52436 16.8493 5.52436Z" fill="#0073E6"/>
		<path d="M6.33171 16.5672C6.33171 17.5425 7.12078 18.3334 8.0926 18.3334C9.06442 18.3334 9.8535 17.5425 9.8535 16.5672C9.8535 15.5909 9.06442 14.8001 8.0926 14.8001C7.12078 14.8001 6.33171 15.5909 6.33171 16.5672Z" fill="#0073E6"/>
		<path d="M15.311 18.3334C14.3392 18.3334 13.5501 17.5425 13.5501 16.5672C13.5501 15.5909 14.3392 14.8001 15.311 14.8001C16.2828 14.8001 17.0719 15.5909 17.0719 16.5672C17.0719 17.5425 16.2828 18.3334 15.311 18.3334Z" fill="#0073E6"/>
  </symbol> 
  <symbol id="arrow-right" viewBox="0 0 836.01 606.38">
    <g id="arrow-right" data-name="Слой 1">
      <path  d="M835.81,306.05c-.41,3.31-1.53,6.36-2.98,9.42-1.51,3.17-3.93,5.33-6.25,7.65-91.19,91.23-182.41,182.44-273.62,273.65-1.08,1.08-2.17,2.13-3.23,3.21-2.65,2.69-6.02,4.02-9.49,5.18-4.4,1.47-8.94,1.56-13.34,.51-2.5-.6-4.95-1.74-7.32-3.04-2.7-1.46-4.7-3.48-6.75-5.55-.76-.78-1.3-1.82-1.78-2.82-.67-1.41-1.65-2.6-2.27-4.1-1.55-3.72-1.84-7.47-1.84-11.39,0-2.5,.6-4.87,1.34-7.11,.52-1.6,.99-3.45,2.37-4.72,.27-.26,.57-.56,.7-.89,1.1-3.08,3.67-4.96,5.84-7.14,75.59-75.61,151.19-151.21,226.78-226.81,.73-.73,1.43-1.5,2.15-2.25-.08-.19-.16-.38-.24-.57-.88-.04-1.75-.12-2.63-.12-26.64,0-53.28,.01-79.92,.01s-55.1-.01-82.64-.01c-35.64,0-71.29,.01-106.93,.01h-123.73c-19,0-37.99,0-56.98,.01h-61.34c-18.16,0-36.32-.02-54.49-.02-19.97,0-39.95,.02-59.93,.02-29.68,0-59.35,.01-89.02-.03-2.52,0-5.04-.23-7.55-.49-1.07-.11-2.22-.37-3.11-.92-1.32-.81-3.11-.64-4.12-2.03-3.87-1.28-6.07-4.6-8.63-7.39-1.31-1.42-1.96-3.48-2.81-5.29-.75-1.6-1.08-3.32-1.49-5.05-.89-3.73-.65-7.37,.21-10.99,.53-2.2,1.55-4.26,2.51-6.34,1.75-3.78,4.85-6.16,7.7-8.79,1.35-1.24,3.32-1.81,5.04-2.62,6.04-2.85,12.52-2.05,18.86-2.09,15.25-.09,30.5-.02,45.74-.02,19.88,.01,39.75,.04,59.62,.04,18.13,0,36.26-.03,54.39-.03,18.5-.01,36.99,0,55.49,.01,20.18,0,40.36,.02,60.53,.02,20.03-.01,40.05-.05,60.08-.05,17.9,0,35.8,.04,53.7,.05,17.68,0,35.35-.02,53.02-.02,22.23,0,44.45,.02,66.68,.02,17.83-.01,35.65-.03,53.48-.03,19.87,0,39.74,.03,59.62,.03,18.05,0,36.1-.03,54.15-.03,10.55-.01,21.09,0,31.63,.01h3.29c-.49-.83-.69-1.29-1-1.64-.55-.63-1.17-1.2-1.76-1.79-75.6-75.59-151.2-151.19-226.79-226.79-1.02-1.02-2.16-1.95-3.03-3.09-1.7-2.23-3.23-4.55-4.46-7.13-1.43-3-2.22-6.08-2.3-9.34-.11-3.83,.29-7.52,1.82-11.19,1.83-4.36,4.38-8.09,8.09-10.88,1.78-1.34,3.85-2.41,6.01-3.3,2.94-1.2,5.9-1.84,9.01-1.98,3.5-.16,6.83,.53,10.16,1.72,3.84,1.38,6.88,3.68,9.72,6.52,91.99,92.04,184.01,184.06,276.03,276.07,.64,.65,1.27,1.31,1.92,1.94,2.13,2.09,3.23,4.75,4.4,7.45,1.72,4,2.21,8.09,1.69,12.33Z" />
    </g>	
  </symbol>
  <symbol id="logo123" viewBox="0 0 20 20">
    <path d="M10.8106 3.39743C10.3986 3.24236 9.60147 3.24236 9.18944 3.39743C8.56395 3.63285 8.54169 4.22259 8.54169 4.79167V8.54167L4.16669 8.54167C2.90421 8.54167 2.97806 11.4583 4.16669 11.4583L8.54169 11.4583V15.2083C8.54169 15.7774 8.56395 16.3672 9.18944 16.6026C9.60147 16.7577 10.3986 16.7577 10.8106 16.6026C11.4361 16.3672 11.4584 15.7774 11.4584 15.2083V11.4583L15.8334 11.4583C17.0958 11.4583 17.022 8.54168 15.8334 8.54167L11.4584 8.54167V4.79167C11.4584 4.22259 11.4361 3.63285 10.8106 3.39743Z" fill="#0073E6"/>
  </symbol>  


</svg>


