<svg xmlns="http://www.w3.org/2000/svg" style="display: none;">
  <symbol id="icon-plus" viewBox="0 0 20 20">
    <path d="M10.8106 3.39743C10.3986 3.24236 9.60147 3.24236 9.18944 3.39743C8.56395 3.63285 8.54169 4.22259 8.54169 4.79167V8.54167L4.16669 8.54167C2.90421 8.54167 2.97806 11.4583 4.16669 11.4583L8.54169 11.4583V15.2083C8.54169 15.7774 8.56395 16.3672 9.18944 16.6026C9.60147 16.7577 10.3986 16.7577 10.8106 16.6026C11.4361 16.3672 11.4584 15.7774 11.4584 15.2083V11.4583L15.8334 11.4583C17.0958 11.4583 17.022 8.54168 15.8334 8.54167L11.4584 8.54167V4.79167C11.4584 4.22259 11.4361 3.63285 10.8106 3.39743Z" fill="#0073E6"/>
  </symbol>
  <symbol id="icon-minus" viewBox="0 0 20 20">
		<path d="M15.8334 11.4584L4.16669 11.4584C2.97806 11.4584 2.90421 8.54169 4.16669 8.54169L15.8334 8.54169C17.022 8.54169 17.0958 11.4584 15.8334 11.4584Z" fill="#0073E6"/>
  </symbol>
	<symbol id="icon-a" viewBox="0 0 20 20">
		<path d="M2.13921 8.85286C3.94254 6.80665 5.81023 4.76966 7.88855 2.99948C9.4022 1.71026 11.213 3.99136 9.72829 5.25592C8.53265 6.27428 7.4204 7.39243 6.34477 8.54169L17.3333 8.54169C18.7148 8.54169 18.7988 11.4584 17.3333 11.4584L6.34082 11.4584C7.41768 12.6091 8.53119 13.7287 9.72829 14.7483C11.2448 16.0401 9.3937 18.2868 7.88855 17.0048C5.81022 15.2346 3.94255 13.1976 2.13921 11.1514C1.51893 10.4476 1.49966 9.57854 2.13921 8.85286Z" fill="#0073E6"/>
  </symbol>
	<symbol id="icon-arrow-right" viewBox="0 0 20 20">
		<path d="M17.8608 8.85286C16.0575 6.80665 14.1898 4.76966 12.1114 2.99948C10.5978 1.71026 8.78702 3.99136 10.2717 5.25592C11.4673 6.27428 12.5796 7.39243 13.6552 8.54169L2.66675 8.54169C1.28522 8.54169 1.20124 11.4584 2.66675 11.4584L13.6592 11.4584C12.5823 12.6091 11.4688 13.7287 10.2717 14.7483C8.75515 16.0401 10.6063 18.2868 12.1114 17.0048C14.1951 15.23 16.0537 13.2019 17.8608 11.1514C18.4811 10.4476 18.5003 9.57854 17.8608 8.85286Z" fill="#0073E6"/>
  </symbol>
	<symbol id="icon-cart" viewBox="0 0 20 20">
		<path d="M16.8493 5.52436H8.73675C7.4907 5.52436 7.31586 3.23353 7.05615 2.37059C6.93044 1.95291 6.547 1.66669 6.11285 1.66669H2.65233C1.29662 1.66669 1.21761 4.49395 2.65233 4.49395C3.41392 4.49395 4.67556 4.23952 4.96357 5.19892L7.00227 12.0142C7.32973 13.1051 8.41352 13.774 9.529 13.5599C12.0581 13.0788 14.6385 12.476 16.9549 11.3231C17.668 10.969 18.1496 10.2799 18.2458 9.48699C18.3547 8.57652 18.3564 7.66563 18.2468 6.75513C18.1623 6.04805 17.5581 5.52436 16.8493 5.52436Z" fill="#0073E6"/>
		<path d="M6.33171 16.5672C6.33171 17.5425 7.12078 18.3334 8.0926 18.3334C9.06442 18.3334 9.8535 17.5425 9.8535 16.5672C9.8535 15.5909 9.06442 14.8001 8.0926 14.8001C7.12078 14.8001 6.33171 15.5909 6.33171 16.5672Z" fill="#0073E6"/>
		<path d="M15.311 18.3334C14.3392 18.3334 13.5501 17.5425 13.5501 16.5672C13.5501 15.5909 14.3392 14.8001 15.311 14.8001C16.2828 14.8001 17.0719 15.5909 17.0719 16.5672C17.0719 17.5425 16.2828 18.3334 15.311 18.3334Z" fill="#0073E6"/>
  </symbol>
	<symbol id="logo" viewBox="0 0 24 40">
		<path d="M7.71429 0H24V9.77778H10.2857V18.6667H24V28.4444H10.2857V40H0V28.4444H7.71429L0 20.4444V8L7.71429 0Z"/>
	</symbol>
</svg>





